<svg width="630.37" height="38.52" viewBox="0 0 166.79 10.19" xmlns="http://www.w3.org/2000/svg">
  <g style="line-height:1.25" font-size="10.58" stroke-width=".26" font-family="Georgia">
    <path d="M37.12 76.1h-2.48v-.34l.25-.02q.14-.02.22-.05.15-.04.22-.16.07-.11.07-.3v-5.9q0-.19-.08-.35-.08-.16-.2-.26-.1-.06-.35-.11-.25-.05-.4-.06v-.33l1.92-.12.07.08v6.99q0 .18.07.3.07.11.22.17l.22.08q.11.03.25.04zM42.3 74.9q-.32.6-.86.97-.53.36-1.23.36-.62 0-1.08-.22-.46-.21-.76-.58-.3-.38-.45-.87-.15-.5-.15-1.05 0-.5.16-.97.16-.48.46-.87.3-.36.73-.59.44-.22.98-.22.56 0 .96.17.4.18.65.48.23.3.35.69.12.39.12.85v.34H38.8q0 .5.1.9.1.42.3.73.2.3.53.47.32.17.77.17.46 0 .8-.2.33-.23.64-.78zm-1.14-1.94q0-.3-.05-.62-.05-.34-.16-.56-.12-.24-.32-.39-.21-.15-.54-.15-.54 0-.9.46-.36.45-.39 1.26zM47.87 73.5q0 .54-.17 1.06-.17.51-.49.88-.36.4-.83.61-.47.2-1.05.2-.49 0-.93-.18-.43-.18-.78-.54-.33-.34-.53-.84-.2-.5-.2-1.12 0-1.2.7-1.95.69-.76 1.82-.76 1.07 0 1.76.72.7.72.7 1.92zm-1.07 0q0-.38-.08-.8-.08-.44-.23-.74-.17-.32-.44-.51-.27-.2-.65-.2-.4 0-.69.2-.27.2-.45.53-.17.32-.23.72-.07.4-.07.78 0 .5.08.92.08.42.26.75.17.33.44.52.26.19.66.19.64 0 1.02-.63.38-.62.38-1.72zM56.14 76.71q-.52.45-1.23.73-.7.27-1.58.27-.78 0-1.54-.25-.75-.25-1.36-.76-.6-.51-.96-1.27-.37-.76-.37-1.8 0-.88.33-1.71.33-.84.95-1.49.6-.63 1.47-1.02.87-.4 1.9-.4.9 0 1.56.3.65.28 1.07.75.42.47.63 1.07.21.6.21 1.26 0 1.26-.7 2.14-.68.86-1.74.86-.44 0-.75-.21-.3-.22-.34-.62l-.04-.01q-.24.37-.56.6-.32.22-.64.22-.22 0-.44-.06-.22-.08-.39-.24-.17-.17-.27-.44t-.1-.68q0-.37.17-.84.18-.47.47-.9.3-.42.76-.74.47-.31 1.01-.31.3 0 .52.16.22.16.28.48h.03l.22-.58h.77L54.5 74l-.08.3-.02.26q0 .27.13.39.14.12.35.12.8 0 1.34-.75.53-.75.53-1.98 0-.61-.19-1.13-.19-.52-.58-.92-.38-.4-.95-.62-.57-.23-1.31-.23-.7 0-1.37.28-.67.27-1.22.8-.53.52-.86 1.29-.33.77-.33 1.74 0 .93.26 1.65.26.7.73 1.19.46.46 1.08.7.63.23 1.36.23.82 0 1.46-.23.64-.22 1.15-.64zm-1.8-4.45q-.07-.42-.23-.6-.16-.2-.47-.2-.33 0-.61.27-.27.26-.47.63-.2.38-.31.84-.11.45-.11.83 0 .44.1.68.11.23.36.23.35 0 .63-.24.27-.25.52-.69zM60.83 76.1h-2.48v-.34l.25-.02.22-.05q.15-.04.22-.16.07-.11.07-.3v-5.9q0-.19-.08-.35-.08-.16-.2-.26-.1-.06-.35-.11-.25-.05-.4-.06v-.33L60 68.1l.07.08v6.99q0 .18.07.3.07.11.22.17l.22.08q.11.03.25.04zM66.01 74.9q-.32.6-.86.97-.54.36-1.23.36-.62 0-1.08-.22-.46-.21-.76-.58-.3-.38-.45-.87-.15-.5-.15-1.05 0-.5.16-.97.16-.48.46-.87.3-.36.73-.59.44-.22.98-.22.56 0 .96.17.4.18.65.48.23.3.35.69.12.39.12.85v.34H62.5q0 .5.1.9.1.42.3.73.2.3.53.47.32.17.77.17.46 0 .8-.2.33-.23.64-.78zm-1.14-1.94q0-.3-.05-.62-.05-.34-.16-.56-.12-.24-.32-.39-.21-.15-.54-.15-.54 0-.9.46-.36.45-.39 1.26zM71.58 73.5q0 .54-.17 1.06-.18.51-.5.88-.35.4-.82.61-.47.2-1.05.2-.49 0-.93-.18-.44-.18-.78-.54-.33-.34-.53-.84-.2-.5-.2-1.12 0-1.2.7-1.95.69-.76 1.82-.76 1.07 0 1.76.72.7.72.7 1.92zm-1.07 0q0-.38-.08-.8-.08-.44-.23-.74-.17-.32-.44-.51-.27-.2-.65-.2-.4 0-.69.2-.28.2-.45.53-.17.32-.23.72-.07.4-.07.78 0 .5.08.92.08.42.25.75.18.33.44.52.27.19.67.19.64 0 1.02-.63.38-.62.38-1.72zM75.68 73.6q.21.19.32.43.12.24.12.6 0 .7-.53 1.15-.53.45-1.37.45-.45 0-.83-.16-.37-.16-.53-.3l-.1.34h-.39l-.05-1.77h.36q.04.2.17.47.14.27.33.49.2.22.48.38.28.15.63.15.5 0 .77-.22.27-.23.27-.64 0-.22-.09-.38-.08-.16-.25-.28-.17-.11-.42-.2l-.55-.2q-.24-.07-.54-.2-.3-.12-.5-.3-.24-.18-.38-.44-.15-.26-.15-.62 0-.62.47-1.06.46-.43 1.24-.43.3 0 .61.07.32.08.52.2l.11-.28h.38l.07 1.64h-.35q-.11-.55-.47-.89-.36-.34-.88-.34-.42 0-.66.2-.25.22-.25.52 0 .23.08.39.09.15.25.26.15.1.38.2l.59.2q.34.1.64.25t.5.32zM82.42 76.1h-2.5v-.34l.26-.02q.14-.01.24-.05.14-.04.2-.16.08-.11.08-.3V72.6q0-.54-.26-.84-.25-.3-.62-.3-.27 0-.5.1-.23.08-.4.2-.18.13-.27.26l-.15.22v2.93q0 .17.07.29.07.11.21.17l.24.08q.12.03.27.04v.34h-2.5v-.34l.24-.02.22-.05q.14-.04.22-.16.07-.11.07-.3V69.3q0-.18-.08-.35-.08-.18-.21-.27-.1-.07-.33-.1l-.38-.03v-.33l1.89-.12.07.08v3.55h.02l.31-.3q.14-.13.37-.28.2-.12.46-.2.27-.09.6-.09.68 0 1.05.44.36.43.36 1.24v2.65q0 .18.07.3.06.1.21.16l.21.08.26.03zM87.87 76q-.24.1-.43.14-.18.06-.41.06-.4 0-.65-.19-.24-.19-.3-.55h-.03q-.34.37-.73.57-.38.2-.92.2-.58 0-.95-.35-.37-.36-.37-.92 0-.3.09-.53.08-.23.24-.42.13-.16.35-.27.2-.13.4-.2l.93-.33q.72-.23.97-.37v-.51q0-.07-.04-.26-.02-.19-.11-.36-.1-.2-.3-.33-.19-.15-.53-.15-.24 0-.45.09-.2.07-.28.16 0 .1.05.3.05.2.05.38t-.17.33q-.16.15-.45.15-.26 0-.38-.18-.12-.19-.12-.41 0-.24.17-.46.17-.22.44-.39.23-.14.56-.24.33-.1.65-.1.43 0 .75.06.33.06.59.25.26.2.4.52.14.33.14.85 0 .74-.02 1.3L87 75.1q0 .2.06.33.08.11.22.2.08.04.24.05h.35zm-1.8-2.72q-.44.12-.77.25-.33.12-.62.3-.26.18-.4.43-.16.24-.16.57 0 .42.22.63.23.2.58.2.37 0 .64-.18.28-.18.47-.42zM95.97 71.33q-.22.02-.47.18-.25.16-.37.48l-.49 1.45-.5 1.52-.2.58q-.1.3-.17.6h-.44l-1.37-3.76-1.38 3.75h-.43l-.76-2.27q-.36-1.13-.65-1.97-.08-.24-.31-.38-.24-.14-.45-.17V71h2.27v.36q-.17 0-.37.06-.2.05-.2.17l.02.09.05.14.37 1.22.54 1.73 1.3-3.66h.5l1.33 3.61.44-1.34q.22-.65.38-1.22l.07-.24q.04-.11.04-.22 0-.1-.09-.17-.08-.07-.2-.11-.1-.05-.23-.07l-.17-.02V71h1.94zM97.96 75.5q0 .3-.21.5-.2.2-.5.2-.29 0-.5-.2-.2-.2-.2-.5 0-.29.2-.5.21-.2.5-.2.3 0 .5.2.21.21.21.5zM101.4 76.23q-1.1 0-1.73-.73-.63-.74-.63-1.97 0-.54.17-1 .17-.47.49-.86.3-.36.76-.59.46-.22 1-.22.75 0 1.22.36.48.36.48.98 0 .25-.13.46-.12.2-.4.2-.31 0-.48-.16-.17-.16-.17-.35 0-.23.06-.47.07-.25.08-.37-.1-.16-.28-.2-.18-.07-.4-.07-.24 0-.47.11-.22.1-.43.4-.2.25-.31.69-.12.44-.12 1.05 0 .96.42 1.57.43.6 1.12.6.5 0 .84-.24.34-.24.63-.73l.33.22q-.34.6-.9.97-.56.35-1.15.35zM108.82 73.5q0 .54-.17 1.06-.17.51-.48.88-.36.4-.83.61-.47.2-1.05.2-.49 0-.93-.18-.44-.18-.78-.54-.33-.34-.54-.84-.2-.5-.2-1.12 0-1.2.7-1.95.7-.76 1.82-.76 1.07 0 1.77.72t.7 1.92zm-1.07 0q0-.38-.07-.8-.08-.44-.24-.74-.16-.32-.43-.51-.27-.2-.66-.2-.4 0-.68.2t-.45.53q-.17.32-.24.72-.06.4-.06.78 0 .5.07.92.09.42.26.75.18.33.44.52.27.19.66.19.65 0 1.03-.63.37-.62.37-1.72zM111.34 75.5q0 .3-.22.5-.2.2-.5.2-.28 0-.5-.2-.2-.2-.2-.5 0-.29.2-.5.22-.2.5-.2.3 0 .5.2.22.21.22.5zM117.88 76l-1.66.12-.08-.07v-.65h-.03l-.28.28q-.15.14-.36.26-.23.14-.44.21-.22.08-.62.08-.68 0-1.03-.44-.35-.45-.35-1.29v-2.44q0-.18-.08-.3-.06-.14-.2-.23-.1-.06-.23-.09-.14-.03-.3-.04v-.34l1.7-.12.08.07v3.54q0 .56.25.83.25.28.6.28.28 0 .5-.08.22-.1.37-.21.14-.11.25-.23.1-.12.16-.23v-2.88q0-.18-.07-.3-.07-.14-.2-.23-.1-.06-.28-.07l-.41-.03v-.34l1.85-.12.08.07v4.05q0 .17.07.3.07.12.2.21.1.06.22.08l.29.02zM123.91 76.1h-1.54l-.86-1.25q-.46-.67-.96-1.3l-.42.4v1.2q0 .2.07.32t.21.17l.24.08q.12.03.27.04v.34h-2.5v-.34l.24-.02.22-.05q.14-.04.22-.16.07-.11.07-.3V69.3q0-.2-.08-.36-.08-.17-.21-.26-.1-.08-.34-.1l-.37-.04v-.33l1.89-.12.07.08v5.39l.87-.87q.47-.46.79-.82l.09-.12q.05-.08.05-.13 0-.14-.23-.2-.22-.07-.43-.1V71h2.25v.32q-.44.13-.77.33-.34.19-.51.34-.12.1-.35.34l-.64.61q.43.52.95 1.25l.78 1.05q.23.31.4.4.19.1.53.12zM128.68 78.29h-.65V68.23h.65zM138.2 71.27q.34.4.5.94.16.53.16 1.11 0 .7-.2 1.26t-.55.92q-.36.38-.86.57-.5.2-1.1.2-.67 0-1.2-.23-.52-.22-.84-.6-.34-.41-.51-.95-.17-.54-.17-1.17 0-.61.16-1.13.17-.52.51-.93.33-.4.86-.64.52-.23 1.19-.23.7 0 1.21.23.51.24.85.65zm-.48 2.05q0-1.23-.42-1.9-.42-.68-1.14-.68-.74 0-1.16.68-.43.67-.43 1.9 0 1.17.4 1.88.42.71 1.18.71.75 0 1.16-.7.41-.72.41-1.89zM144.7 70.89l-3.68 7.1h-.64l3.46-6.57h-2.03l-.7.01q-.25.01-.46.1-.16.07-.3.35-.12.27-.18.7h-.32v-2.03h4.86zM150.48 74.15q0 .87-.75 1.5-.75.62-1.97.62-1.15 0-1.83-.57-.69-.57-.69-1.48 0-.67.4-1.11.41-.45 1.2-.76-.65-.37-.97-.8-.33-.44-.33-1 0-.84.71-1.4.72-.58 1.72-.58t1.61.54q.62.54.62 1.35 0 .52-.34 1-.34.46-1 .76.86.36 1.23.8.39.45.39 1.13zm-1.26-3.75q0-.63-.37-1.02-.37-.4-.96-.4-.58 0-.95.38-.38.38-.38.94 0 .55.43.92.42.38 1.5.81.4-.25.56-.66.17-.4.17-.97zm.22 4q0-.33-.14-.57-.14-.25-.4-.45-.25-.2-.7-.4-.46-.23-.99-.45-.5.27-.72.69-.24.41-.24.94 0 .76.45 1.23t1.2.47q.7 0 1.12-.41.42-.42.42-1.05zM156.42 76.1h-4.84v-.7q.14-.17.38-.36.25-.2.6-.44.2-.14.49-.3l.65-.36q.41-.22.63-.39.22-.16.4-.4.12-.16.2-.4.07-.24.07-.69 0-.64-.35-.94-.35-.3-.89-.3-.33 0-.63.13-.3.12-.45.36l.08.39q.06.23.06.44 0 .2-.16.36-.16.15-.48.15-.26 0-.4-.18t-.14-.48q0-.28.15-.56.16-.28.45-.52.28-.23.7-.38.42-.14.9-.14 1.06 0 1.68.47.63.47.63 1.26 0 .38-.11.7-.11.3-.36.54-.28.26-.64.45-.37.19-1.12.53-.45.2-.84.42-.39.22-.64.42h3.98zM162.7 74.15q0 .87-.76 1.5-.75.62-1.97.62-1.14 0-1.83-.57-.68-.57-.68-1.48 0-.67.4-1.11.4-.45 1.2-.76-.65-.37-.98-.8-.32-.44-.32-1 0-.84.7-1.4.73-.58 1.73-.58t1.6.54q.63.54.63 1.35 0 .52-.34 1-.34.46-1 .76.85.36 1.23.8.38.45.38 1.13zm-1.26-3.75q0-.63-.38-1.02-.37-.4-.95-.4-.59 0-.96.38t-.37.94q0 .55.42.92.43.38 1.51.81.39-.25.56-.66.17-.4.17-.97zm.22 4q0-.33-.14-.57-.14-.25-.4-.45t-.71-.4q-.45-.23-.98-.45-.5.27-.73.69-.23.41-.23.94 0 .76.44 1.23.45.47 1.2.47.71 0 1.13-.41.42-.42.42-1.05zM171.34 73.72q0 .53-.2 1-.19.47-.51.8-.38.38-.84.56-.45.18-.95.18-.57 0-1.04-.2-.46-.22-.79-.6-.33-.4-.51-.97t-.18-1.28q0-1.84 1.1-3.1 1.1-1.27 2.94-1.53l.1.47-.47.08q-1.12.36-1.74 1.13-.6.76-.79 1.85.45-.38.88-.54.43-.16.91-.16.87 0 1.48.66t.61 1.65zm-1.12.13q0-.83-.39-1.34-.38-.5-1.03-.5-.38 0-.72.14-.33.14-.64.48l-.02.3v.35q0 1.2.39 1.9.4.67 1.04.67.62 0 1-.53.37-.54.37-1.47zM177.09 71.27q.33.4.49.94.16.53.16 1.11 0 .7-.2 1.26t-.55.92q-.36.38-.86.57-.5.2-1.1.2-.67 0-1.2-.23-.51-.22-.84-.6-.34-.41-.51-.95-.17-.54-.17-1.17 0-.61.16-1.13.17-.52.52-.93.33-.4.85-.64.52-.23 1.2-.23.7 0 1.2.23.51.24.85.65zm-.49 2.05q0-1.23-.42-1.9-.42-.68-1.14-.68-.74 0-1.16.68-.42.67-.42 1.9 0 1.17.4 1.88t1.17.71q.76 0 1.16-.7.41-.72.41-1.89zM184.04 74.15q0 .87-.75 1.5-.74.62-1.96.62-1.15 0-1.83-.57-.7-.57-.7-1.48 0-.67.41-1.11.41-.45 1.2-.76-.65-.37-.98-.8-.32-.44-.32-1 0-.84.71-1.4.72-.58 1.72-.58t1.61.54q.62.54.62 1.35 0 .52-.34 1-.34.46-1 .76.85.36 1.23.8.38.45.38 1.13zm-1.25-3.75q0-.63-.37-1.02-.38-.4-.96-.4t-.96.38q-.37.38-.37.94 0 .55.43.92.42.38 1.5.81.4-.25.56-.66.17-.4.17-.97zm.22 4q0-.33-.14-.57-.14-.25-.4-.45t-.71-.4q-.45-.23-.98-.45-.5.27-.73.69-.23.41-.23.94 0 .76.45 1.23t1.19.47q.71 0 1.13-.41.42-.42.42-1.05zM189.88 71.27q.33.4.5.94.16.53.16 1.11 0 .7-.2 1.26t-.55.92q-.37.38-.86.57-.5.2-1.1.2-.68 0-1.2-.23-.52-.22-.84-.6-.35-.41-.52-.95-.16-.54-.16-1.17 0-.61.16-1.13.16-.52.51-.93.33-.4.85-.64.52-.23 1.2-.23.7 0 1.21.23.5.24.84.65zm-.48 2.05q0-1.23-.43-1.9-.41-.68-1.14-.68t-1.16.68q-.42.67-.42 1.9 0 1.17.4 1.88.41.71 1.17.71t1.17-.7q.4-.72.4-1.89zM196.48 76.1h-4.84v-.7q.13-.17.38-.36.25-.2.6-.44.2-.14.49-.3l.65-.36q.41-.22.63-.39.22-.16.4-.4.12-.16.2-.4.07-.24.07-.69 0-.64-.35-.94-.35-.3-.89-.3-.33 0-.63.13-.3.12-.45.36l.08.39q.06.23.06.44 0 .2-.16.36-.17.15-.49.15-.25 0-.4-.18-.13-.18-.13-.48 0-.28.15-.56.16-.28.45-.52.28-.23.7-.38.42-.14.9-.14 1.06 0 1.68.47.63.47.63 1.26 0 .38-.12.7-.1.3-.35.54-.28.26-.64.45-.37.19-1.12.53-.45.2-.84.42-.39.22-.64.42h3.98zM201.16 76.1h-3.48v-.37l.48-.04q.33-.04.45-.07.16-.05.24-.17.1-.12.1-.35v-3.63h-1.3v-.43h.29q.56 0 1-.2.44-.22.63-.45h.43l-.03.78-.01.8v3.07q0 .18.07.33.09.14.24.2.13.06.43.1.3.06.46.06z" style="-inkscape-font-specification:Georgia" transform="translate(-34.37 -68.1)"/>
  </g>
</svg>
