<svg width="2093.37" height="2093.37" xmlns="http://www.w3.org/2000/svg">
  <path d="M1520.17 83.36c115.46 39.42 53.5 219.65-64.77 177.4-253.44-90.1-557.56-137.98-743.42 67.59-152.06 160.51-191.49 456.19 11.26 630.78 245 219.65 594.18 171.78 613.9 470.27 8.44 157.7-129.54 273.15-281.6 284.42-183.05 11.26-411.14-33.8-597-168.96-98.56-70.4 11.26-222.46 109.82-152.06 216.84 157.7 597 185.85 580.1 45.05-11.26-132.35-290.05-109.82-551.94-337.92C188.21 742.3 436.02 29.85 1016.11 1.7c168.96-8.44 306.94 14.08 504.06 81.67zM421.93 1944.76c-107-56.31-19.7-222.46 90.11-166.14 433.67 230.92 1022.21 171.78 1022.21-349.18 0-385.8-506.88-456.2-650.5-571.65-225.27-177.4-107-675.84 594.18-391.42 109.82 45.06 42.24 219.65-73.22 171.78-425.21-171.78-498.43 2.81-405.5 76.03 104.2 78.85 720.9 191.49 720.9 715.26 0 515.33-456.2 757.5-982.79 630.78-95.74-19.7-205.56-56.32-315.39-115.45zm616.7-416.76z" fill="#222"/>
</svg>
